PathFileType	4	(X/Y/Z)	/Users/niels/Desktop/University/Third Semester/Perception and Action/Exam/Gymnastics Motion Tracking/Code for Gym Tracking/Analyzed Data/Webcam_Backflip/id3_4_baseline_Sports2D/id3_4_baseline_Sports2D_px_person00.trc
DataRate	CameraRate	NumFrames	NumMarkers	Units	OrigDataRate	OrigDataStartFrame	OrigNumFrames
29.8125	29.8125	10	22	m	29.8125	60	160
Frame#	Time	Hip			RHip			RKnee			RAnkle			RBigToe			RSmallToe			RHeel			LHip			LKnee			LAnkle			LBigToe			LSmallToe			LHeel			Neck			Head			Nose			RShoulder			RElbow			RWrist			LShoulder			LElbow			LWrist		
		X1	Y1	Z1	X2	Y2	Z2	X3	Y3	Z3	X4	Y4	Z4	X5	Y5	Z5	X6	Y6	Z6	X7	Y7	Z7	X8	Y8	Z8	X9	Y9	Z9	X10	Y10	Z10	X11	Y11	Z11	X12	Y12	Z12	X13	Y13	Z13	X14	Y14	Z14	X15	Y15	Z15	X16	Y16	Z16	X17	Y17	Z17	X18	Y18	Z18	X19	Y19	Z19	X20	Y20	Z20	X21	Y21	Z21	X22	Y22	Z22
60	2.012578616352201	1.1180717369158082	-0.3314411675354747	0.0	1.1151543451532517	-0.3314843094551818	0.0	1.0201886806739504	-0.33442917953505397	0.0	1.054197829829122	-0.26846890326580897	0.0	1.0193614322512266	-0.24825481795847046	0.0	1.0286504116389412	-0.24627154816980604	0.0	1.0601408783106026	-0.2587426435697573	0.0	1.1164900196877983	-0.33119792154571276	0.0	1.0295341505829525	-0.32830013051588586	0.0	1.0530883572820011	-0.266767487033433	0.0	1.0208299215222008	-0.24735697906800203	0.0	1.023268462459459	-0.2412953964126354	0.0	1.0725283029304327	-0.2495125381372564	0.0	1.069198988803011	-0.4418081903182883	0.0	1.0556765931588963	-0.49905940714754043	0.0	1.0477725840759524	-0.4680443998876289	0.0	1.0648206066500492	-0.4237411336971516	0.0	1.0711017618930025	-0.34945759894800116	0.0	1.0721998132095865	-0.3389600761787298	0.0	1.082041812863106	-0.43403416646243315	0.0	1.0829839840247535	-0.36855626122110446	0.0	1.0876709204288522	-0.34402014506986694	0.0
61	2.0461215932914043	1.1171465931689288	-0.3215707712860691	0.0	1.1121396063312925	-0.32328981369081383	0.0	1.017540103470718	-0.36284194919146123	0.0	1.0171837754297157	-0.29011849468682527	0.0	0.9787742695517847	-0.29085585546300424	0.0	0.9848899072296884	-0.28511089867980893	0.0	1.01790445587296	-0.27593293260629753	0.0	1.1186440181176986	-0.32137894847072995	0.0	1.0315168374583794	-0.35276488746178464	0.0	1.0197119635265965	-0.28855942662092743	0.0	0.9827693330050263	-0.28881735186121943	0.0	0.9885549873853808	-0.2796700148147056	0.0	1.0394608362867988	-0.2669145400535784	0.0	1.1096802363010858	-0.4503857325914188	0.0	1.1150315849964172	-0.5136754422878738	0.0	1.0957464202502651	-0.4888821818022528	0.0	1.0967248504982272	-0.4342142034647167	0.0	1.0778650768564881	-0.3597399219299122	0.0	1.0781535445896062	-0.3601816232064637	0.0	1.1225335245363186	-0.4381327727650214	0.0	1.109485191267291	-0.36819176008158255	0.0	1.1012150155345741	-0.3585112679870676	0.0
62	2.079664570230608	1.1135928584581847	-0.3188658352446089	0.0	1.1068166450491583	-0.322205186455473	0.0	1.0210888720848907	-0.393024417910871	0.0	0.9865788371938106	-0.3268181882636229	0.0	0.9518689059556585	-0.34878651629647345	0.0	0.9536515027283211	-0.3403033842035831	0.0	0.9814740755498398	-0.310508987426511	0.0	1.1176367410487917	-0.3183267050712175	0.0	1.0380857540057424	-0.38021092700985665	0.0	0.9934023980892653	-0.3246652489133319	0.0	0.9599226268885028	-0.3453290857639841	0.0	0.9690094976067412	-0.3334007035056079	0.0	1.0128751526515942	-0.3022781366224969	0.0	1.148198931987096	-0.45390734040409325	0.0	1.172125536936088	-0.5190156015137858	0.0	1.1435978539012372	-0.5016571899479397	0.0	1.1277112543430694	-0.44024968851320617	0.0	1.0863735205685396	-0.37399505280567724	0.0	1.0840524480981857	-0.38293852544914814	0.0	1.1598163548005704	-0.43762547721242867	0.0	1.1381271953325058	-0.3655702704063771	0.0	1.1159964232776935	-0.37098174260902606	0.0
63	2.113207547169811	1.1086244534463359	-0.32501169555391096	0.0	1.1005815240486634	-0.3293081510299781	0.0	1.0299597016881767	-0.4234541584671661	0.0	0.9673438961446088	-0.3778540092901811	0.0	0.9432612026444633	-0.41766503802769644	0.0	0.9402625568355444	-0.4079812228764836	0.0	0.9565646481013408	-0.3623285350762382	0.0	1.1141242804486826	-0.32390888605533996	0.0	1.0478111588779881	-0.4098147842510002	0.0	0.9781843814092567	-0.37436191811952146	0.0	0.9565621009134421	-0.4125677788999635	0.0	0.9676130894742889	-0.3983003085353928	0.0	0.9947212791982107	-0.35497168731561235	0.0	1.1818261724524408	-0.45280369760221484	0.0	1.2228272713944122	-0.5151671469065481	0.0	1.1877945045507567	-0.5056702565056453	0.0	1.1560619810633546	-0.44225384979091376	0.0	1.0972824481900398	-0.39301331682320684	0.0	1.090357271238858	-0.40989889755411896	0.0	1.1904574803464003	-0.4336788837446505	0.0	1.1637866937546437	-0.3636562454545503	0.0	1.1301731884287276	-0.3835595500647561	0.0
64	2.1467505241090143	1.1033634577216456	-0.3405841891203091	0.0	1.0947621323300165	-0.3449028261020262	0.0	1.0426358844915045	-0.45404024456896835	0.0	0.9631524770629523	-0.44056580276706336	0.0	0.9543809241227733	-0.49193323899460095	0.0	0.9471180318115962	-0.4827448095693237	0.0	0.9477019005816381	-0.4286025067700397	0.0	1.1090798181039496	-0.33897768382940335	0.0	1.059112799201262	-0.4414939617217633	0.0	0.9762757709612908	-0.43528721967927037	0.0	0.9723796168555507	-0.4852733958239411	0.0	0.9826597194376293	-0.4696022743585724	0.0	0.9853775163559642	-0.4217107011242401	0.0	1.208535673481282	-0.4487298805357511	0.0	1.2642854635635827	-0.5041553762867592	0.0	1.2252060298301268	-0.5023825067818779	0.0	1.1803129454246712	-0.4419760583498943	0.0	1.1102905782250017	-0.41674145444036886	0.0	1.0989073080942322	-0.44388356557024783	0.0	1.2125307967949555	-0.4284331022490907	0.0	1.1808504648524003	-0.3674768457247077	0.0	1.1423426449555028	-0.40090280192546	0.0
65	2.180293501048218	1.0986393832661066	-0.3651357379980494	0.0	1.090396848896574	-0.36881715635614126	0.0	1.0573156899331113	-0.4860396732270067	0.0	0.9749028424967192	-0.5103914032125678	0.0	0.9826583810489781	-0.5659308903516395	0.0	0.9724487006675421	-0.558660939387981	0.0	0.9565212509433819	-0.5039062048462544	0.0	1.1036448671621475	-0.3633702656205379	0.0	1.0706470160606176	-0.4758318207251276	0.0	0.9875618138659362	-0.5033718566651832	0.0	1.0026320126647208	-0.558180929634624	0.0	1.0090115146769187	-0.5427896706911687	0.0	0.9859597394584475	-0.49695616178483215	0.0	1.2272320971509236	-0.44418634777831756	0.0	1.2948954186326485	-0.48932412091833377	0.0	1.2535845252064086	-0.49495292765575344	0.0	1.199199638906868	-0.4417397605943734	0.0	1.1251218147116167	-0.44420152492374443	0.0	1.1126961418745893	-0.48447352612989614	0.0	1.2258519806812949	-0.4243699885316521	0.0	1.1875334260413277	-0.3823391586136995	0.0	1.1533858532565568	-0.42753325378943563	0.0
66	2.213836477987421	1.0949523040877303	-0.3976481906861885	0.0	1.0880870973010368	-0.4006425893602392	0.0	1.0726509837282314	-0.5212894823664528	0.0	0.9999911001694197	-0.5820620912440292	0.0	1.0221547591814588	-0.6353111367585511	0.0	1.0105492508613632	-0.6308055947015124	0.0	0.980727437330689	-0.5817624247865412	0.0	1.0988467964350812	-0.39621080611276166	0.0	1.0818000897244395	-0.5136796920780797	0.0	1.0095578705001738	-0.573831354187922	0.0	1.0403651186024232	-0.6269456377109208	0.0	1.041077404213297	-0.6136575672971709	0.0	0.9981354285496616	-0.5745339854010436	0.0	1.237767623445486	-0.4417976290874586	0.0	1.3141409043157553	-0.4741194986076704	0.0	1.2720921465399557	-0.4869552145748322	0.0	1.211906755418903	-0.44372184909786105	0.0	1.1424378337386993	-0.4736304257945418	0.0	1.1349304771331774	-0.5267903698792953	0.0	1.2314648896606664	-0.4235730841831959	0.0	1.187557721768647	-0.41024302995162387	0.0	1.1668098432388354	-0.4638334336411371	0.0
67	2.2473794549266244	1.0926889156015362	-0.4366974705560042	0.0	1.088089816741411	-0.43942837393724526	0.0	1.0881747122752115	-0.560830020666886	0.0	1.032940661366311	-0.6508155141593563	0.0	1.0653319445884817	-0.6976026079572957	0.0	1.0534509049949303	-0.6960328762776391	0.0	1.0145159912593082	-0.6562782032615377	0.0	1.0954722035181421	-0.4359853722732044	0.0	1.0929183826864919	-0.5553367558431868	0.0	1.0378336282123786	-0.642149827234566	0.0	1.078841077248237	-0.6886940866988821	0.0	1.0741865318680328	-0.6783579564495595	0.0	1.0207100820281212	-0.6488322681030011	0.0	1.2408980070677245	-0.44370364978260046	0.0	1.3225247550382486	-0.46131946072047386	0.0	1.2813390207548716	-0.4813029500710035	0.0	1.2183824412315998	-0.44968469212572926	0.0	1.163104082867243	-0.5027046139168202	0.0	1.1668660310481687	-0.5641072769850151	0.0	1.2309203971017897	-0.42748796495650376	0.0	1.1876529009863652	-0.44695051219707926	0.0	1.1864158397215567	-0.5036614544487048	0.0
68	2.280922431865828	1.092234941203014	-0.4803342833590791	0.0	1.0904078212559714	-0.48326121948873574	0.0	1.1040446021629855	-0.6040759175824543	0.0	1.0670935522562488	-0.7131050436606924	0.0	1.1051784993524063	-0.7519727604704733	0.0	1.0932937441196036	-0.752943231287767	0.0	1.0503682947379078	-0.7230875694752874	0.0	1.0940403754797747	-0.4804628099929292	0.0	1.104776495568496	-0.5999275670675241	0.0	1.0668897107768633	-0.7046393304030525	0.0	1.1126674938724457	-0.7423919490916943	0.0	1.1040966695231587	-0.734473399990779	0.0	1.048288836290769	-0.7153553416453708	0.0	1.2380349250259717	-0.4511439605270309	0.0	1.321413623409368	-0.45279780446378565	0.0	1.2829250420058165	-0.4797887235242125	0.0	1.2193735284071425	-0.4606867688010279	0.0	1.186716153747507	-0.5289292160483139	0.0	1.20633499559417	-0.5908213181217828	0.0	1.2258595948986268	-0.43697672431442275	0.0	1.1933511837353044	-0.4838688419776958	0.0	1.2129844851270728	-0.5372285708136347	0.0
69	2.314465408805031	1.0937651710960137	-0.5259725551332369	0.0	1.0946976497741627	-0.5292226763822518	0.0	1.1203681008482753	-0.6489137595334111	0.0	1.0967107709947312	-0.7666156764904157	0.0	1.1369642951655055	-0.7983727225588486	0.0	1.124530927935504	-0.8011779734219246	0.0	1.0815798494619064	-0.7795473871003219	0.0	1.0946547986410025	-0.5267309838136015	0.0	1.1175749887721265	-0.6453467468632625	0.0	1.0916781629968397	-0.7585866183296149	0.0	1.1382049215785561	-0.7882472165535902	0.0	1.1271047644253929	-0.781375839386014	0.0	1.0741382313406946	-0.7710007924418968	0.0	1.2309652436031129	-0.46419363285764914	0.0	1.312777582895302	-0.4494891406201839	0.0	1.2789148258790957	-0.4830299605489116	0.0	1.216247623245325	-0.4766372829630681	0.0	1.211179670758915	-0.5501757195547717	0.0	1.2483119344142406	-0.6037440217992296	0.0	1.2178397639785563	-0.4521395190359695	0.0	1.2057549991697751	-0.5138482641149822	0.0	1.2431702917191247	-0.5576394209639188	0.0
